<svg width="164" height="30" viewBox="0 0 164 30" fill="none" xmlns="http://www.w3.org/2000/svg">
<path d="M163.176 23.3506C163.738 21.7198 164 20.0519 164 18.347C164 17.0498 163.813 15.7526 163.476 14.4183C162.652 11.1197 160.668 8.85882 157.599 7.74692C155.615 7.04272 153.556 6.67209 151.497 6.67209C149.55 6.67209 147.604 6.9686 145.62 7.59867C142.662 8.52525 140.678 10.4525 139.705 13.3064C139.144 14.9372 138.882 16.6051 138.882 18.31C138.882 19.6072 139.069 20.9044 139.406 22.2387C140.229 25.5373 142.213 27.7982 145.283 28.9101C149.139 30.3185 153.181 30.3555 157.262 29.0583C160.219 28.1317 162.203 26.2045 163.176 23.3506ZM158.497 20.5338C158.497 22.9429 157.748 24.0177 155.502 24.759C152.732 25.6856 149.962 25.6485 147.229 24.6849C145.245 23.9807 144.384 22.7205 144.384 20.645V16.1974C144.384 13.7882 145.133 12.7134 147.379 11.9721C150.149 11.0456 152.919 11.0826 155.652 12.0463C157.636 12.7505 158.497 14.0106 158.497 16.0862V20.5338ZM102.87 1.92799C102.87 0.96434 103.169 0.556643 104.03 0.260137C105.116 -0.110496 106.201 -0.0734328 107.287 0.2972C108.073 0.593707 108.41 1.07553 108.41 1.89092V3.55877C108.41 4.52242 108.11 4.93011 107.249 5.22662C106.164 5.59725 105.078 5.56019 103.993 5.18956C103.207 4.89305 102.87 4.41123 102.87 3.59583V1.92799ZM137.122 7.30217L127.988 29.3919H121.437L112.603 7.30217H118.442L124.881 24.6478L131.207 7.30217H137.122ZM108.41 7.33923V29.3548H102.87V7.33923H108.41ZM52.1461 20.2373C52.1835 19.8296 52.1835 19.3848 52.221 18.9771C52.2958 17.8652 52.3707 16.8645 52.3333 15.7897C52.2584 13.047 51.0231 6.67209 40.5789 6.67209C33.2043 6.67209 28.787 11.0085 28.787 18.31C28.787 25.945 32.8674 29.9849 40.5789 29.9849C47.3545 29.9849 51.1354 28.0576 51.9963 27.5758L50.7984 23.9065C49.6754 24.203 45.4079 25.352 41.365 25.352C35.1883 25.352 34.3648 23.017 34.3648 20.4967V20.2002H52.1461V20.2373ZM34.4022 16.0862C34.4022 13.8994 35.4878 11.2679 40.5414 11.2679C44.8464 11.2679 47.055 12.8987 47.055 16.0862V16.3827H34.4022V16.0862ZM85.7247 24.4254V0.000693784H91.0404V7.33923H97.8535V11.3791H91.0778V22.8688C91.0778 23.7583 91.1901 24.3884 91.6019 24.796C92.0137 25.1667 92.6501 25.3149 93.7731 25.2408C94.709 25.2037 96.2438 24.9443 97.1796 24.796L98.415 28.4653C97.7411 28.7618 95.3454 29.7255 91.4896 29.7255C87.5216 29.7255 85.7247 28.0947 85.7247 24.4254ZM26.9902 7.30217L17.8936 29.3919H11.3052L0 0.000693784H5.72746L14.7866 24.6849L21.113 7.33923L26.9902 7.30217ZM62.5528 12.7134V29.3548H57.1249V7.30217H60.7934C60.8683 7.30217 61.018 7.45042 61.1303 7.59867C61.2801 7.82105 61.617 8.7847 61.617 8.7847C61.617 8.7847 66.3711 6.67209 70.4515 6.67209C79.1363 6.67209 80.1096 12.0833 80.1096 14.4183C80.147 18.1988 80.1096 27.5387 80.1096 29.3178H74.6816C74.6816 27.687 74.6816 19.5701 74.6816 15.8267C74.6816 12.8617 73.1468 11.2309 70.3766 11.2309C66.2214 11.2309 62.5528 12.7134 62.5528 12.7134Z" fill="white"/>
</svg>
